# xmcd
#
# Track frame offsets:
#	150
#	13970
#	25714
#	38211
#	52069
#	64723
#	78922
#	91294
#	105020
#	117170
#	129525
#	142861
#	155529
#	165500
#	174893
#	186087
#	198966
#	212740
#	224627
#	234688
#	244560
#	257883
#	271476
#	283643
#	294684
#	308236
#	322073
#	336249
#
# Disc length: 4628 seconds
#
# Revision: 0
# Processed by: cddbd v1.5.2PL0 Copyright (c) Steve Scherf et al.
# Submitted via: EasyCDDAExtractor 2010.4.0.0
#
DISCID=9712121c
DTITLE=Various Artist - Heritage of the Blues Vol. 1
DYEAR=2006
DGENRE=Blues
TTITLE0=Josh White - Jelly Jelly
TTITLE1=Josh White - Sometime
TTITLE2=Bessie Smith - Sweet Mistreater
TTITLE3=Bessie Smith - Take it right Back
TTITLE4=Ma Rainey - Oh Papa Blues
TTITLE5=Ma Rainey - Leaving This Morning
TTITLE6=Leadbelly - Grasshopper in my pillow
TTITLE7=Leadbelly  - Alabama Bound
TTITLE8=T-Bone Walker - I get so weary
TTITLE9=T-Bone Walker - Papa ain't salty
TTITLE10=Bukka White - When can I change my clothes
TTITLE11=Bukka White - High Fever Blues
TTITLE12=Fats Domino - You can pack your suitcase
TTITLE13=Fats Domino - Blue Monday
TTITLE14=Muddy Waters - I can't be satisfied
TTITLE15=Muddy Waters - Rolling Stone
TTITLE16=Kokomo Arnold - Sagefield Woman blues
TTITLE17=Kokomo Arnold - Shake that thing
TTITLE18=Amos Wilburn - Rocky Mountain
TTITLE19=Amos Wilburn - My happiness depends on you
TTITLE20=Charles Brown - Let's walk
TTITLE21=Charles Brown - My heart is mended
TTITLE22=Wynonie Harris - Good morning judge
TTITLE23=Wynonie Harris - Lovin' machine
TTITLE24=Memphis Minnie - Good Morning
TTITLE25=Memphis Minnie - Bad luck woman
TTITLE26=John Lee Hooker - Turn over a new leaf
TTITLE27=John Lee Hooker - Please don't go
EXTD=
EXTT0=
EXTT1=
EXTT2=
EXTT3=
EXTT4=
EXTT5=
EXTT6=
EXTT7=
EXTT8=
EXTT9=
EXTT10=
EXTT11=
EXTT12=
EXTT13=
EXTT14=
EXTT15=
EXTT16=
EXTT17=
EXTT18=
EXTT19=
EXTT20=
EXTT21=
EXTT22=
EXTT23=
EXTT24=
EXTT25=
EXTT26=
EXTT27=
PLAYORDER=
